<svg xmlns="http://www.w3.org/2000/svg" width="96.773" height="99.777" viewBox="0 0 96.773 99.777"><path d="M0,70.652V.4H13.82V4.971H6.627v8.81h6.1v4.647h-6.1V31.36H17.175V.4H23.8V28.61H31.52V31.36H33.4L39.4.4h7.4L52.757,31.36h5.324q-.13-.128-.254-.264-2.263-2.485-2.464-7.7l5.738-.97a10.753,10.753,0,0,0,.87,4.587,2.533,2.533,0,0,0,2.364,1.475,1.929,1.929,0,0,0,1.7-.748,3.263,3.263,0,0,0,.525-1.92,5.973,5.973,0,0,0-.869-3.293,14.615,14.615,0,0,0-2.728-2.97l-3.394-2.949a13.014,13.014,0,0,1-3.092-3.638A9.478,9.478,0,0,1,55.4,8.324a7.933,7.933,0,0,1,2.364-6.163A9.312,9.312,0,0,1,64.293,0q4.446,0,6.183,2.566a12.848,12.848,0,0,1,1.98,6.527l-5.778.849a11.742,11.742,0,0,0-.586-3.819,1.955,1.955,0,0,0-2-1.232,1.981,1.981,0,0,0-1.7.828,3.228,3.228,0,0,0-.607,1.96,4.975,4.975,0,0,0,.707,2.727,11.893,11.893,0,0,0,2.242,2.446l3.314,2.91A17.785,17.785,0,0,1,71.729,20.1a10.428,10.428,0,0,1,1.334,5.354,8.277,8.277,0,0,1-1.051,4.183,7.4,7.4,0,0,1-1.348,1.718h5.995V.4h6.668V13.82h5.778V.4h6.668V70.652L47.9,98.7ZM73.858,55.907a8.646,8.646,0,0,0,1.753,5.452,6.145,6.145,0,0,0,4.848,1.827,6.374,6.374,0,0,0,3.124-.751,5.386,5.386,0,0,0,2.106-2.078,6.077,6.077,0,0,0,.751-3.036,7.61,7.61,0,0,0-.943-3.83A11.936,11.936,0,0,0,82.876,50.4L79.9,47.773a6.926,6.926,0,0,1-1.487-1.664,3.779,3.779,0,0,1-.457-1.931,2.428,2.428,0,0,1,.53-1.606,1.823,1.823,0,0,1,1.474-.634,1.776,1.776,0,0,1,1.782.988,8.219,8.219,0,0,1,.545,2.932l3.743-.649a8.654,8.654,0,0,0-1.547-4.73c-.89-1.164-2.383-1.753-4.435-1.753a6.346,6.346,0,0,0-4.524,1.547,5.719,5.719,0,0,0-1.636,4.346,7.075,7.075,0,0,0,.693,3.241A8.4,8.4,0,0,0,76.658,50.4l3.006,2.622a10.681,10.681,0,0,1,1.989,2.166,4.378,4.378,0,0,1,.633,2.4,2.543,2.543,0,0,1-.486,1.636,1.8,1.8,0,0,1-1.487.6,2.112,2.112,0,0,1-1.989-1.193,8.3,8.3,0,0,1-.723-3.462ZM11.356,40.76a9.82,9.82,0,0,0-1.533,5.952v8.517a9.739,9.739,0,0,0,1.547,5.879c1.027,1.378,2.8,2.078,5.26,2.078,2.366,0,4.051-.64,5.009-1.9a8.727,8.727,0,0,0,1.444-5.349V54.021H18.9v2.15a12.965,12.965,0,0,1-.133,2.078,2.215,2.215,0,0,1-.619,1.253,2.078,2.078,0,0,1-1.487.471,2.046,2.046,0,0,1-1.916-.9,6.086,6.086,0,0,1-.53-2.932V45.8a11.094,11.094,0,0,1,.162-2.107,2.331,2.331,0,0,1,.693-1.3,2.292,2.292,0,0,1,1.591-.486,2.159,2.159,0,0,1,1.517.456,2.031,2.031,0,0,1,.6,1.179,13.147,13.147,0,0,1,.117,1.989V47.6h4.185v-2a7.8,7.8,0,0,0-1.473-5.1c-.978-1.174-2.653-1.768-4.981-1.768C14.146,38.727,12.371,39.411,11.356,40.76Zm46.678,22.1h5.8a9.678,9.678,0,0,0,4.39-.84,4.859,4.859,0,0,0,2.314-2.52,11.776,11.776,0,0,0,.692-4.392V46.418a10.988,10.988,0,0,0-.692-4.259A4.609,4.609,0,0,0,68.2,39.773a10.849,10.849,0,0,0-4.539-.78H58.034Zm-12.2-10.934H47.9l2.859,10.934h4.362L51.786,51.1a4.075,4.075,0,0,0,2.284-2.078,8.891,8.891,0,0,0,.663-3.7c0-2.308-.624-3.959-1.857-4.907a9.212,9.212,0,0,0-5.628-1.429H41.5v23.87h4.332V51.929h0ZM29.981,57.351h4.154l.943,5.511h4.038l-4.774-23.87H29.684L24.91,62.862h4.1l.972-5.511ZM89.105,31.36V18.629H83.327V31.36Zm-42.448,0-.913-5.416H40.573l-.944,5.416Zm-5.479-9.538H45.1L43.118,8.648Zm21.187,38V42.087h1.3a4.19,4.19,0,0,1,2.078.4,1.9,1.9,0,0,1,.87,1.222,10.756,10.756,0,0,1,.206,2.417v9.136a14.968,14.968,0,0,1-.177,2.667,2.254,2.254,0,0,1-.824,1.4,3.476,3.476,0,0,1-2.093.5Zm-28.7-5.246h-3.24l1.621-10.019,1.62,10.016v0Zm12.172-5.363V41.968h1.62a3.075,3.075,0,0,1,2.491.854,4.38,4.38,0,0,1,.692,2.741,4.12,4.12,0,0,1-.78,2.8,3.467,3.467,0,0,1-2.638.854Z" transform="translate(0.5 0.5)" fill="#fff" stroke="rgba(0,0,0,0)" stroke-width="1"/></svg>